<?xml version="1.0" encoding="utf-8"?>
<!-- Generator: Adobe Illustrator 18.0.0, SVG Export Plug-In . SVG Version: 6.00 Build 0)  -->
<!DOCTYPE svg PUBLIC "-//W3C//DTD SVG 1.1//EN" "http://www.w3.org/Graphics/SVG/1.1/DTD/svg11.dtd">
<svg version="1.1" id="Layer_1" xmlns="http://www.w3.org/2000/svg" xmlns:xlink="http://www.w3.org/1999/xlink" x="0px" y="0px"
	 viewBox="0 0 174 40" enable-background="new 0 0 174 40" xml:space="preserve">
<g>
	<path fill="#101010" d="M158.5187225,26.3814659c0,0,1.3111725-2.9220066,4.5504761-2.5933399
		c0,0,3.3320312,0.3285751,3.3800964,3.9525738c0,0,0.0497589,3.6169281-4.6003265,3.7917328h-18.7822418V0.0262252h-6.7863312
		v37.8467941l25.2906647,0.0078773c11.2634125-0.1844711,10.9312439-9.9627972,10.9312439-9.9627972
		c-0.4187164-10.0781708-9.6638336-9.9373779-9.6638336-9.9373779c-3.9875946,0.0148582-6.5625763,2.4045734-7.7644653,3.8643227
		L158.5187225,26.3814659z"/>
	<path fill="#101010" d="M68.6462631,0.0017901h11.6384354c4.3581238,0,7.0756073,0.8198728,9.2289352,2.5619235
		c2.1537781,1.743751,4.460434,4.8205118,4.460434,9.1778316c0,2.5129642-0.9229889,6.4602566-3.6405563,9.0755253
		c-2.2551041,2.1528835-4.4088745,2.6651249-6.3055954,3.1266155l10.3054276,13.9975376h-8.5109253l-10.0497055-14.509779h-0.10186
		v14.509779h-7.0245895V0.0017901z M75.6708527,18.1502476h4.5119858c5.7938004,0,6.7675323-3.8450785,6.7675323-5.8449059
		c0-2.1013269-1.2818146-5.7409892-6.7675323-5.7409892h-4.5119858V18.1502476z"/>
	<path fill="#101010" d="M93.7669525,23.7391663c0-8.6141243,7.0240479-15.2273474,15.1756973-15.2273474
		c8.0503311,0,15.0735855,6.4087019,15.0735855,15.1241465c0,9.3316898-7.1771164,15.2282429-15.0735855,15.2282429
		C100.4833755,38.8642082,93.7669525,31.8908138,93.7669525,23.7391663 M117.1974945,23.7898254
		c0-5.1780872-3.9989243-9.0230751-8.2548447-9.0230751c-3.5373459,0-8.3578644,3.0243092-8.3578644,8.9724159
		c0,5.3825169,4.0512924,8.871006,8.3578644,8.871006C113.916214,32.6101723,117.1974945,28.3018112,117.1974945,23.7898254"/>
	<rect x="126.321167" y="0.0008907" fill="#101010" width="6.8177433" height="37.9403267"/>
	<path fill="#00AFF0" d="M15.7915907,0.000895h5.4857187l15.8946991,37.9403267h-7.7426052l-4.050045-9.793272H11.7926521
		l-4.0504932,9.793272H0L15.7915907,0.000895z M14.1509504,21.5338326h8.7158918L18.559824,9.8962936h-0.1018562
		L14.1509504,21.5338326z"/>
	<path fill="#00AFF0" d="M65.213356,37.9412231h-6.2544823v-3.4875908h-0.1031075
		c-1.2814484,2.0531731-4.2550163,4.4105759-9.0747147,4.4105759c-7.228672,0-14.5088844-5.9472122-14.5088844-15.125042
		c0-9.5877686,7.6901512-15.2273474,14.5088844-15.2273474c4.1527023,0,6.6133041,1.3844748,8.6140327,3.4858017V0h6.8182716
		V37.9412231z M50.498703,32.6092758c5.1277847,0,8.4090652-4.6150951,8.4090652-8.9208603
		c0-4.6666508-3.5889969-8.9216652-8.4090652-8.9216652c-5.0749779,0-8.4082603,4.7165051-8.4082603,8.7154446
		C42.0904427,28.7633038,46.0386314,32.6092758,50.498703,32.6092758"/>
</g>
<g>
</g>
<g>
</g>
<g>
</g>
<g>
</g>
<g>
</g>
<g>
</g>
<g>
</g>
<g>
</g>
<g>
</g>
<g>
</g>
<g>
</g>
<g>
</g>
<g>
</g>
<g>
</g>
<g>
</g>
<g>
</g>
<g>
</g>
<g>
</g>
</svg>
